<svg width="32" height="32" viewBox="0 0 32 32" fill="none" xmlns="http://www.w3.org/2000/svg">
<g id="Frame 15">
<path id="search" opacity="0.5" d="M22.8264 28.899L17.7474 18.95L17.7423 18.94L17.7319 18.944C16.9815 19.2276 16.1737 19.383 15.3086 19.41C14.4437 19.4371 13.5741 19.309 12.6998 19.0256C10.5337 18.3237 8.94398 16.9797 7.92993 14.9934C6.91588 13.007 6.75976 10.9312 7.4617 8.76507C8.16364 6.59899 9.50761 5.00927 11.494 3.99522C13.4803 2.98116 15.5562 2.82505 17.7223 3.52699C19.8883 4.22893 21.4781 5.5729 22.4921 7.55927C23.5062 9.54564 23.6623 11.6215 22.9604 13.7876C22.677 14.6619 22.2707 15.4413 21.7415 16.126C21.2122 16.8108 20.6126 17.3739 19.9428 17.8153L19.9334 17.8214L19.9385 17.8314L25.0175 27.7804L22.8264 28.899ZM13.466 16.6614C14.9616 17.146 16.403 17.0345 17.7893 16.3268C19.1757 15.6191 20.1114 14.517 20.5961 13.0214C21.0808 11.5257 20.9692 10.0843 20.2615 8.69801C19.5538 7.31168 18.4518 6.37595 16.9561 5.89127C15.4604 5.40659 14.0191 5.5181 12.6327 6.22583C11.2464 6.93357 10.3107 8.03558 9.82598 9.53124C9.3413 11.0269 9.45281 12.4683 10.1605 13.8546C10.8683 15.241 11.9703 16.1767 13.466 16.6614Z" fill="#3C3030" stroke="#3C3030" stroke-width="0.025"/>
</g>
</svg>
